<svg width="76" height="79" viewBox="0 0 76 79" fill="none" xmlns="http://www.w3.org/2000/svg">
<mask id="path-1-inside-1_85_424" fill="white">
<path d="M20.2812 2.16028L20.3694 1.78946C20.3356 1.65199 20.306 1.51201 20.2722 1.37454C20.0389 1.25257 19.808 1.1347 19.5747 1.01273C16.9913 1.97595 14.6039 3.26214 13.6875 6.8502L13.8288 7.0797L14.3851 7.21201C16.5076 4.64195 17.1752 3.11462 20.2812 2.16028ZM65.1904 29.6649C64.8838 28.4831 64.5772 27.3012 64.274 26.1202C64.2866 24.7729 65.9322 23.8105 64.9257 22.5566C63.3438 20.5887 61.6313 22.7 59.6085 21.8796C57.5477 21.0431 54.6184 19.3424 53.3309 17.8432C50.0898 14.0709 50.0612 8.55796 43.1898 7.018C39.9101 7.51125 37.7745 6.56251 35.3081 8.07827C33.2064 9.36944 31.9163 12.2634 29.3139 12.7184C26.5187 13.2044 22.842 10.5283 20.5779 11.62C19.8297 11.8828 16.289 18.2679 16.2426 19.9779C16.3158 21.0378 16.3883 22.101 16.4648 23.1617C16.1221 23.8672 15.0012 24.0204 14.9653 25.3482C14.9389 26.3564 16.2042 26.7133 15.4611 28.2052C14.7808 29.5651 13.1742 31.1279 12.4212 32.7644C9.73282 38.6106 9.66607 45.9654 10.3175 50.654C10.6961 53.3712 11.508 56.076 12.5751 58.4287C13.2966 59.5133 14.0148 60.5972 14.7363 61.6818C15.0768 62.8682 14.1917 65.5157 14.3329 66.6722C16.2317 68.852 18.4458 69.0883 20.7591 67.6131C24.2253 68.9097 27.8041 71.4681 32.6717 71.8143C34.8252 71.8053 36.9787 71.7963 39.1322 71.7873C41.5478 72.0295 41.4899 75.0382 44.5213 74.6328C48.1018 74.1691 46.6377 71.4561 48.6107 68.9554C49.5729 68.2048 50.5309 67.4567 51.493 66.706C54.0112 63.8698 56.1778 60.2467 57.8808 56.293C59.292 53.0221 60.465 47.9874 60.4698 44.5848C60.4727 43.7634 59.7777 42.6116 60.4329 41.4451C60.8424 40.7239 61.9837 40.7051 61.9766 39.0732C61.9722 38.4005 61.1865 37.7624 61.7634 36.6752C62.8567 34.623 65.2102 33.5526 65.1904 29.6649ZM63.2342 23.9174L63.1901 24.1028L63.0047 24.0587C62.9263 23.8441 62.8446 23.6288 62.7662 23.4142C62.9225 23.5808 63.0779 23.7508 63.2342 23.9174ZM51.0579 20.8253C49.8056 21.8987 47.8852 23.3834 46.3877 24.0172C44.841 23.3869 43.2968 22.7608 41.7501 22.1305C41.6671 21.656 41.5848 21.1782 41.5018 20.7037C43.4895 19.3329 45.9353 21.4924 46.9675 18.2852C45.3442 16.4473 40.6133 15.2766 37.4718 15.4389C36.8761 15.7519 36.2796 16.0683 35.6839 16.3814C35.5478 16.6744 35.4149 16.9681 35.278 17.2643C35.2968 17.4647 35.3123 17.6643 35.3311 17.8647C36.0976 18.5542 37.1678 18.9522 38.7183 19.258C38.8596 19.4875 39.0009 19.717 39.1422 19.9465C39.0202 20.1799 38.9023 20.4107 38.7804 20.6441C38.6734 20.8145 38.5697 20.9858 38.4627 21.1562C37.3982 20.9695 36.3344 20.7794 35.2699 20.5927C34.188 18.8906 33.514 17.2681 32.5811 15.4545C34.0147 12.4127 38.173 11.2994 41.3433 10.6927C42.4408 11.0202 43.5357 11.3436 44.6332 11.6711L51.0637 20.8301L51.0579 20.8253ZM40.5559 18.915C39.96 18.1996 40.0217 17.8959 38.7402 17.5037L38.7844 17.3182C39.3697 17.328 39.9559 17.3345 40.5379 17.3435C41.4954 17.7007 42.4554 18.062 43.4129 18.4192C41.9677 18.2153 41.5235 18.4945 40.5559 18.915ZM42.4662 8.41306C43.9199 8.71338 44.8792 9.07797 45.4384 9.90363C42.9695 9.40033 39.5784 8.74416 37.7241 9.43652C35.3545 10.3246 34.486 13.123 31.6768 13.4763C35.5829 9.65835 36.7496 9.40064 42.4662 8.41306ZM20.3035 16.0534C21.8309 14.5731 23.3813 14.5116 25.4956 13.9616C30.0204 14.8664 31.4949 16.1826 31.7479 19.7515L31.5715 20.4931C27.5942 21.5515 23.3788 21.7873 20.3052 24.2675C20.1048 24.2863 19.9052 24.3018 19.7048 24.3206C19.1026 23.4113 18.6146 22.83 18.3825 21.6588C18.7683 21.6841 19.1533 21.7127 19.539 21.738C20.2382 20.4456 20.8805 16.9952 20.3042 16.05L20.3035 16.0534ZM17.3094 24.5379L18.2364 24.7584C18.2702 24.8959 18.2998 25.0359 18.3336 25.1734C18.2266 25.3438 18.1229 25.515 18.0159 25.6855C17.8155 25.7043 17.616 25.7198 17.4156 25.7386C17.2451 25.6316 17.0739 25.5279 16.9035 25.4209C17.0396 25.1279 17.1724 24.8342 17.3094 24.5379ZM17.1956 66.9613C16.4587 66.4118 16.0464 66.1598 15.8381 65.2707L16.146 63.9761C16.9707 64.627 17.7913 65.2805 18.6159 65.9314C18.6944 66.1459 18.7761 66.3613 18.8545 66.5758C18.2683 66.9961 18.1634 67.0691 17.1981 66.9654L17.1956 66.9613ZM43.1074 72.341C42.8128 71.9176 42.9709 72.312 42.8689 71.6966C43.7428 71.3167 44.6134 70.9361 45.4866 70.5596L46.2282 70.736C46.2179 71.0589 46.2043 71.381 46.1931 71.7072C45.5071 72.5619 44.4253 73.3891 43.1074 72.341ZM57.4543 51.4971C54.6414 63.3235 48.5045 69.5493 38.7426 70.1309C19.727 71.261 11.8804 58.099 11.9435 43.803C11.9626 39.134 13.6144 33.0132 16.1202 29.5374C20.9247 22.8687 27.1701 23.5111 35.4259 22.3929C50.371 25.7867 56.8962 31.827 58.6533 43.1767C59.0196 45.5342 58.1711 48.4982 57.4569 51.5012L57.4543 51.4971ZM59.0387 36.6148C57.9406 34.657 56.8385 32.7018 55.7405 30.744C53.7639 28.906 51.7881 27.0648 49.8148 25.2277C50.3724 24.2514 50.9299 23.275 51.4908 22.2995C52.6539 21.866 53.74 22.2118 55.2749 22.0242C58.0123 22.6193 60.9041 24.0068 61.5966 25.8751C61.738 26.1046 61.8793 26.3342 62.0206 26.5637L61.0935 26.3432L60.8199 26.6699C61.0298 27.6993 61.2439 28.7262 61.4538 29.7556C60.9604 31.0061 60.4663 32.2598 59.973 33.5103L59.8848 33.8811L60.8119 34.1016C61.747 33.1556 62.6007 32.0224 63.075 30.3371C63.7952 33.251 60.9108 36.1121 59.0387 36.6148ZM69.7192 13.9193C69.3683 14.2766 69.3552 14.2141 69.0837 14.9436C70.6397 16.7409 71.6235 19.1788 73.1676 20.8054C73.46 20.6791 73.7491 20.5519 74.0416 20.4256C74.4383 17.8753 72.0815 14.7681 69.7192 13.9193ZM23.5116 5.86011L23.7762 4.74766C23.4832 4.61151 23.1895 4.47868 22.8932 4.34175C20.3805 5.27279 14.8414 8.20558 14.8531 11.8185L14.7649 12.1893C17.2601 11.8908 18.0434 5.97976 23.509 5.85602L23.5116 5.86011ZM65.4549 16.2283C65.3329 16.4617 65.215 16.6925 65.0931 16.9259C66.3863 18.3424 67.6795 19.7589 68.9728 21.1754C69.5264 22.451 69.2821 24.1105 70.1718 25.1792C70.2794 25.2712 70.391 25.3608 70.4985 25.4528C73.6091 23.5235 68.5742 17.0122 65.4541 16.2316L65.4549 16.2283ZM36.0443 28.0146C29.5108 28.9513 25.244 28.1673 21.4709 33.3532C12.7925 45.2782 16.88 56.5666 26.9697 62.0484C29.5255 63.4364 34.339 65.4664 37.9454 65.2467C46.4747 64.7288 55.7664 54.5343 53.7576 43.1841C52.3314 35.1349 46.9775 30.3913 36.041 28.0138L36.0443 28.0146ZM51.8579 50.3618L51.7697 50.7326C50.7084 50.0324 49.7289 48.7675 48.577 50.1691L48.1367 52.0199C48.9851 53.0123 49.4876 53.2088 50.8705 52.866C46.935 65.4994 31.1791 66.6913 22.1124 56.9821C16.4111 50.8755 18.1244 37.5981 25.192 31.6951C27.5059 29.7618 30.1413 29.8744 33.2404 29.1108C44.3218 31.5262 48.7157 34.114 51.4323 41.4592C52.1205 43.316 53.5048 47.8501 51.8571 50.3651L51.8579 50.3618ZM38.8393 34.3535C39.0397 34.3347 39.2393 34.3192 39.4396 34.3004C39.6503 33.9587 39.8643 33.6178 40.075 33.2761C39.9441 32.7237 39.8164 32.1722 39.6854 31.6198C39.2071 31.4395 38.7279 31.2626 38.2496 31.0823C37.8839 31.5166 37.5216 31.9516 37.1559 32.3859C37.1456 32.7088 37.1319 33.0309 37.1208 33.357C37.6288 33.9571 37.8023 34.4776 38.8393 34.3535ZM35.7913 46.3444L35.6059 46.3003C35.6681 42.2887 39.5756 37.4496 35.9823 34.8493C35.5668 34.684 35.1473 34.5213 34.7318 34.356C34.4394 34.4824 34.1503 34.6095 33.8579 34.7358C27.4121 44.04 39.6557 57.6882 46.9173 50.558C46.9276 50.2351 46.9413 49.913 46.9524 49.5868C46.1726 45.9381 38.7861 46.49 35.7913 46.3444ZM34.6103 43.9121L34.522 44.2829C32.9776 43.2754 33.2639 38.2187 34.6183 36.4804L35.5454 36.7009C36.0971 38.3083 36.2059 41.9688 34.6136 43.9129L34.6103 43.9121ZM44.2939 50.91C41.5596 50.9487 39.5951 49.6629 37.6201 48.539C37.7421 48.3056 37.8599 48.0748 37.9819 47.8414C38.7047 47.8175 39.4276 47.7935 40.1504 47.7695C42.3535 48.1991 44.6303 48.5692 45.3001 49.9739C44.9636 50.2857 44.6304 50.5982 44.2939 50.91ZM23.5268 43.6231C23.1709 43.472 22.8143 43.3242 22.4584 43.1731C22.0928 43.6074 21.7304 44.0424 21.3648 44.4767C21.5129 45.7363 21.6431 45.9981 22.3604 46.8649L22.5458 46.909C23.2554 46.588 23.5448 46.4155 24.1483 45.9224C24.4006 44.6705 24.3056 44.2317 23.5202 43.6216L23.5268 43.6231ZM33.8468 57.8142C33.5252 58.063 33.207 58.3127 32.8846 58.5649C31.0653 60.6543 34.7109 62.3435 35.5743 59.5964C35.477 59.1815 35.3798 58.7665 35.2826 58.3516C34.8043 58.1714 34.3251 57.9944 33.8468 57.8142Z"/>
</mask>
<path d="M20.2812 2.16028L20.3694 1.78946C20.3356 1.65199 20.306 1.51201 20.2722 1.37454C20.0389 1.25257 19.808 1.1347 19.5747 1.01273C16.9913 1.97595 14.6039 3.26214 13.6875 6.8502L13.8288 7.0797L14.3851 7.21201C16.5076 4.64195 17.1752 3.11462 20.2812 2.16028ZM65.1904 29.6649C64.8838 28.4831 64.5772 27.3012 64.274 26.1202C64.2866 24.7729 65.9322 23.8105 64.9257 22.5566C63.3438 20.5887 61.6313 22.7 59.6085 21.8796C57.5477 21.0431 54.6184 19.3424 53.3309 17.8432C50.0898 14.0709 50.0612 8.55796 43.1898 7.018C39.9101 7.51125 37.7745 6.56251 35.3081 8.07827C33.2064 9.36944 31.9163 12.2634 29.3139 12.7184C26.5187 13.2044 22.842 10.5283 20.5779 11.62C19.8297 11.8828 16.289 18.2679 16.2426 19.9779C16.3158 21.0378 16.3883 22.101 16.4648 23.1617C16.1221 23.8672 15.0012 24.0204 14.9653 25.3482C14.9389 26.3564 16.2042 26.7133 15.4611 28.2052C14.7808 29.5651 13.1742 31.1279 12.4212 32.7644C9.73282 38.6106 9.66607 45.9654 10.3175 50.654C10.6961 53.3712 11.508 56.076 12.5751 58.4287C13.2966 59.5133 14.0148 60.5972 14.7363 61.6818C15.0768 62.8682 14.1917 65.5157 14.3329 66.6722C16.2317 68.852 18.4458 69.0883 20.7591 67.6131C24.2253 68.9097 27.8041 71.4681 32.6717 71.8143C34.8252 71.8053 36.9787 71.7963 39.1322 71.7873C41.5478 72.0295 41.4899 75.0382 44.5213 74.6328C48.1018 74.1691 46.6377 71.4561 48.6107 68.9554C49.5729 68.2048 50.5309 67.4567 51.493 66.706C54.0112 63.8698 56.1778 60.2467 57.8808 56.293C59.292 53.0221 60.465 47.9874 60.4698 44.5848C60.4727 43.7634 59.7777 42.6116 60.4329 41.4451C60.8424 40.7239 61.9837 40.7051 61.9766 39.0732C61.9722 38.4005 61.1865 37.7624 61.7634 36.6752C62.8567 34.623 65.2102 33.5526 65.1904 29.6649ZM63.2342 23.9174L63.1901 24.1028L63.0047 24.0587C62.9263 23.8441 62.8446 23.6288 62.7662 23.4142C62.9225 23.5808 63.0779 23.7508 63.2342 23.9174ZM51.0579 20.8253C49.8056 21.8987 47.8852 23.3834 46.3877 24.0172C44.841 23.3869 43.2968 22.7608 41.7501 22.1305C41.6671 21.656 41.5848 21.1782 41.5018 20.7037C43.4895 19.3329 45.9353 21.4924 46.9675 18.2852C45.3442 16.4473 40.6133 15.2766 37.4718 15.4389C36.8761 15.7519 36.2796 16.0683 35.6839 16.3814C35.5478 16.6744 35.4149 16.9681 35.278 17.2643C35.2968 17.4647 35.3123 17.6643 35.3311 17.8647C36.0976 18.5542 37.1678 18.9522 38.7183 19.258C38.8596 19.4875 39.0009 19.717 39.1422 19.9465C39.0202 20.1799 38.9023 20.4107 38.7804 20.6441C38.6734 20.8145 38.5697 20.9858 38.4627 21.1562C37.3982 20.9695 36.3344 20.7794 35.2699 20.5927C34.188 18.8906 33.514 17.2681 32.5811 15.4545C34.0147 12.4127 38.173 11.2994 41.3433 10.6927C42.4408 11.0202 43.5357 11.3436 44.6332 11.6711L51.0637 20.8301L51.0579 20.8253ZM40.5559 18.915C39.96 18.1996 40.0217 17.8959 38.7402 17.5037L38.7844 17.3182C39.3697 17.328 39.9559 17.3345 40.5379 17.3435C41.4954 17.7007 42.4554 18.062 43.4129 18.4192C41.9677 18.2153 41.5235 18.4945 40.5559 18.915ZM42.4662 8.41306C43.9199 8.71338 44.8792 9.07797 45.4384 9.90363C42.9695 9.40033 39.5784 8.74416 37.7241 9.43652C35.3545 10.3246 34.486 13.123 31.6768 13.4763C35.5829 9.65835 36.7496 9.40064 42.4662 8.41306ZM20.3035 16.0534C21.8309 14.5731 23.3813 14.5116 25.4956 13.9616C30.0204 14.8664 31.4949 16.1826 31.7479 19.7515L31.5715 20.4931C27.5942 21.5515 23.3788 21.7873 20.3052 24.2675C20.1048 24.2863 19.9052 24.3018 19.7048 24.3206C19.1026 23.4113 18.6146 22.83 18.3825 21.6588C18.7683 21.6841 19.1533 21.7127 19.539 21.738C20.2382 20.4456 20.8805 16.9952 20.3042 16.05L20.3035 16.0534ZM17.3094 24.5379L18.2364 24.7584C18.2702 24.8959 18.2998 25.0359 18.3336 25.1734C18.2266 25.3438 18.1229 25.515 18.0159 25.6855C17.8155 25.7043 17.616 25.7198 17.4156 25.7386C17.2451 25.6316 17.0739 25.5279 16.9035 25.4209C17.0396 25.1279 17.1724 24.8342 17.3094 24.5379ZM17.1956 66.9613C16.4587 66.4118 16.0464 66.1598 15.8381 65.2707L16.146 63.9761C16.9707 64.627 17.7913 65.2805 18.6159 65.9314C18.6944 66.1459 18.7761 66.3613 18.8545 66.5758C18.2683 66.9961 18.1634 67.0691 17.1981 66.9654L17.1956 66.9613ZM43.1074 72.341C42.8128 71.9176 42.9709 72.312 42.8689 71.6966C43.7428 71.3167 44.6134 70.9361 45.4866 70.5596L46.2282 70.736C46.2179 71.0589 46.2043 71.381 46.1931 71.7072C45.5071 72.5619 44.4253 73.3891 43.1074 72.341ZM57.4543 51.4971C54.6414 63.3235 48.5045 69.5493 38.7426 70.1309C19.727 71.261 11.8804 58.099 11.9435 43.803C11.9626 39.134 13.6144 33.0132 16.1202 29.5374C20.9247 22.8687 27.1701 23.5111 35.4259 22.3929C50.371 25.7867 56.8962 31.827 58.6533 43.1767C59.0196 45.5342 58.1711 48.4982 57.4569 51.5012L57.4543 51.4971ZM59.0387 36.6148C57.9406 34.657 56.8385 32.7018 55.7405 30.744C53.7639 28.906 51.7881 27.0648 49.8148 25.2277C50.3724 24.2514 50.9299 23.275 51.4908 22.2995C52.6539 21.866 53.74 22.2118 55.2749 22.0242C58.0123 22.6193 60.9041 24.0068 61.5966 25.8751C61.738 26.1046 61.8793 26.3342 62.0206 26.5637L61.0935 26.3432L60.8199 26.6699C61.0298 27.6993 61.2439 28.7262 61.4538 29.7556C60.9604 31.0061 60.4663 32.2598 59.973 33.5103L59.8848 33.8811L60.8119 34.1016C61.747 33.1556 62.6007 32.0224 63.075 30.3371C63.7952 33.251 60.9108 36.1121 59.0387 36.6148ZM69.7192 13.9193C69.3683 14.2766 69.3552 14.2141 69.0837 14.9436C70.6397 16.7409 71.6235 19.1788 73.1676 20.8054C73.46 20.6791 73.7491 20.5519 74.0416 20.4256C74.4383 17.8753 72.0815 14.7681 69.7192 13.9193ZM23.5116 5.86011L23.7762 4.74766C23.4832 4.61151 23.1895 4.47868 22.8932 4.34175C20.3805 5.27279 14.8414 8.20558 14.8531 11.8185L14.7649 12.1893C17.2601 11.8908 18.0434 5.97976 23.509 5.85602L23.5116 5.86011ZM65.4549 16.2283C65.3329 16.4617 65.215 16.6925 65.0931 16.9259C66.3863 18.3424 67.6795 19.7589 68.9728 21.1754C69.5264 22.451 69.2821 24.1105 70.1718 25.1792C70.2794 25.2712 70.391 25.3608 70.4985 25.4528C73.6091 23.5235 68.5742 17.0122 65.4541 16.2316L65.4549 16.2283ZM36.0443 28.0146C29.5108 28.9513 25.244 28.1673 21.4709 33.3532C12.7925 45.2782 16.88 56.5666 26.9697 62.0484C29.5255 63.4364 34.339 65.4664 37.9454 65.2467C46.4747 64.7288 55.7664 54.5343 53.7576 43.1841C52.3314 35.1349 46.9775 30.3913 36.041 28.0138L36.0443 28.0146ZM51.8579 50.3618L51.7697 50.7326C50.7084 50.0324 49.7289 48.7675 48.577 50.1691L48.1367 52.0199C48.9851 53.0123 49.4876 53.2088 50.8705 52.866C46.935 65.4994 31.1791 66.6913 22.1124 56.9821C16.4111 50.8755 18.1244 37.5981 25.192 31.6951C27.5059 29.7618 30.1413 29.8744 33.2404 29.1108C44.3218 31.5262 48.7157 34.114 51.4323 41.4592C52.1205 43.316 53.5048 47.8501 51.8571 50.3651L51.8579 50.3618ZM38.8393 34.3535C39.0397 34.3347 39.2393 34.3192 39.4396 34.3004C39.6503 33.9587 39.8643 33.6178 40.075 33.2761C39.9441 32.7237 39.8164 32.1722 39.6854 31.6198C39.2071 31.4395 38.7279 31.2626 38.2496 31.0823C37.8839 31.5166 37.5216 31.9516 37.1559 32.3859C37.1456 32.7088 37.1319 33.0309 37.1208 33.357C37.6288 33.9571 37.8023 34.4776 38.8393 34.3535ZM35.7913 46.3444L35.6059 46.3003C35.6681 42.2887 39.5756 37.4496 35.9823 34.8493C35.5668 34.684 35.1473 34.5213 34.7318 34.356C34.4394 34.4824 34.1503 34.6095 33.8579 34.7358C27.4121 44.04 39.6557 57.6882 46.9173 50.558C46.9276 50.2351 46.9413 49.913 46.9524 49.5868C46.1726 45.9381 38.7861 46.49 35.7913 46.3444ZM34.6103 43.9121L34.522 44.2829C32.9776 43.2754 33.2639 38.2187 34.6183 36.4804L35.5454 36.7009C36.0971 38.3083 36.2059 41.9688 34.6136 43.9129L34.6103 43.9121ZM44.2939 50.91C41.5596 50.9487 39.5951 49.6629 37.6201 48.539C37.7421 48.3056 37.8599 48.0748 37.9819 47.8414C38.7047 47.8175 39.4276 47.7935 40.1504 47.7695C42.3535 48.1991 44.6303 48.5692 45.3001 49.9739C44.9636 50.2857 44.6304 50.5982 44.2939 50.91ZM23.5268 43.6231C23.1709 43.472 22.8143 43.3242 22.4584 43.1731C22.0928 43.6074 21.7304 44.0424 21.3648 44.4767C21.5129 45.7363 21.6431 45.9981 22.3604 46.8649L22.5458 46.909C23.2554 46.588 23.5448 46.4155 24.1483 45.9224C24.4006 44.6705 24.3056 44.2317 23.5202 43.6216L23.5268 43.6231ZM33.8468 57.8142C33.5252 58.063 33.207 58.3127 32.8846 58.5649C31.0653 60.6543 34.7109 62.3435 35.5743 59.5964C35.477 59.1815 35.3798 58.7665 35.2826 58.3516C34.8043 58.1714 34.3251 57.9944 33.8468 57.8142Z" fill="#1C1C1C" stroke="#1C1C1C" stroke-width="2" mask="url(#path-1-inside-1_85_424)"/>
</svg>
